<?xml version="1.0" standalone="no"?>
<!DOCTYPE svg PUBLIC "-//W3C//DTD SVG 20010904//EN"
 "http://www.w3.org/TR/2001/REC-SVG-20010904/DTD/svg10.dtd">
<svg version="1.0" xmlns="http://www.w3.org/2000/svg"
 width="500.000000pt" height="500.000000pt" viewBox="0 0 500.000000 500.000000"
 preserveAspectRatio="xMidYMid meet">

<g transform="translate(0.000000,500.000000) scale(0.100000,-0.100000)"
fill="#000000" stroke="none">
<path d="M2740 3669 c0 -186 1 -200 18 -195 9 2 60 14 112 26 52 11 103 23
113 26 15 5 17 22 17 175 l0 169 -130 0 -130 0 0 -201z"/>
<path d="M2400 3339 l0 -351 42 34 c23 18 82 71 130 117 l88 83 0 234 0 234
-130 0 -130 0 0 -351z"/>
<path d="M2965 3489 c-16 -4 -65 -15 -108 -24 l-78 -17 31 -27 31 -26 -64 -80
c-175 -217 -468 -455 -690 -561 -85 -40 -205 -74 -261 -74 -50 0 -123 31 -161
67 l-39 38 30 -41 c79 -113 210 -139 394 -78 201 67 498 276 768 538 l112 109
29 -27 29 -28 7 63 c3 35 5 89 3 120 l-3 55 -30 -7z"/>
<path d="M2070 3110 c0 -181 4 -330 8 -330 9 0 132 73 204 120 l38 25 0 258 0
257 -125 0 -125 0 0 -330z"/>
<path d="M2740 3379 l0 -64 25 30 c31 38 31 46 0 75 l-25 23 0 -64z"/>
<path d="M2903 3248 c-18 -21 -18 -21 7 -15 14 4 28 7 33 7 13 0 8 18 -7 23
-8 3 -22 -4 -33 -15z"/>
<path d="M3115 3241 c-49 -10 -107 -21 -129 -25 l-39 -7 33 -34 32 -33 -20
-30 c-40 -56 -202 -200 -291 -260 -179 -120 -326 -189 -508 -239 -79 -22 -120
-27 -213 -27 -162 -1 -258 34 -343 127 l-39 42 19 -34 c29 -54 114 -134 173
-162 174 -84 421 -59 715 73 177 79 400 218 543 339 l74 61 38 -37 38 -37 6
94 c4 51 9 119 12 151 3 31 2 57 -3 56 -4 0 -48 -9 -98 -18z"/>
<path d="M2807 3152 l-67 -68 0 -82 c0 -100 -4 -100 123 18 118 111 118 112
65 160 -24 22 -45 39 -48 40 -3 0 -36 -30 -73 -68z"/>
<path d="M2627 2992 c-9 -10 -64 -54 -122 -98 l-105 -79 0 -47 c0 -27 3 -48 8
-48 9 0 155 79 210 113 l42 27 0 75 c0 78 -6 87 -33 57z"/>
<path d="M2863 2797 l-123 -82 0 -182 0 -183 130 0 130 0 0 265 c0 146 -3 265
-7 264 -5 0 -63 -37 -130 -82z"/>
<path d="M2193 2695 c-67 -33 -122 -64 -123 -69 0 -10 48 -2 150 25 98 26 102
29 98 70 l-3 35 -122 -61z"/>
<path d="M2590 2637 c-36 -18 -93 -44 -127 -59 l-63 -27 0 -100 0 -101 130 0
130 0 0 160 c0 88 -1 160 -2 159 -2 0 -32 -15 -68 -32z"/>
<path d="M2255 2510 c-33 -10 -88 -21 -122 -25 l-63 -7 0 -69 0 -69 125 0 125
0 0 95 c0 52 -1 94 -2 94 -2 -1 -30 -9 -63 -19z"/>
<path d="M1793 2116 c-41 -19 -63 -62 -63 -126 0 -65 8 -80 86 -161 78 -82
100 -159 45 -159 -20 0 -31 26 -31 78 0 32 0 32 -51 32 l-51 0 4 -76 c3 -71 6
-78 36 -105 28 -25 40 -29 93 -29 78 0 105 18 124 83 30 101 15 147 -81 248
-76 80 -85 98 -59 119 19 16 32 5 37 -30 3 -23 8 -25 57 -28 l54 -3 -5 51 c-7
71 -44 108 -113 115 -32 4 -61 0 -82 -9z"/>
<path d="M1410 1845 l0 -275 55 0 55 0 0 125 0 125 30 0 30 0 0 -125 0 -125
55 0 55 0 0 275 0 275 -55 0 -55 0 0 -95 0 -95 -30 0 -30 0 0 95 0 95 -55 0
-55 0 0 -275z"/>
<path d="M2650 2070 c0 -38 -4 -50 -15 -50 -11 0 -15 -11 -15 -40 0 -29 4 -40
15 -40 13 0 15 -25 15 -163 0 -198 4 -207 86 -207 l54 0 0 40 c0 29 -4 40 -15
40 -13 0 -15 23 -15 145 0 122 2 145 15 145 11 0 15 11 15 40 0 29 -4 40 -15
40 -11 0 -15 12 -15 50 l0 50 -55 0 -55 0 0 -50z"/>
<path d="M2410 2040 c-52 -13 -90 -60 -90 -113 1 -57 16 -81 91 -141 53 -43
65 -58 67 -85 4 -37 -14 -57 -35 -39 -7 6 -13 26 -13 44 l0 34 -56 0 -56 0 4
-57 c4 -48 10 -61 37 -85 27 -24 39 -28 94 -28 90 0 131 31 143 107 12 77 -4
102 -136 215 -34 29 -37 60 -7 66 12 3 19 -5 23 -27 6 -30 8 -31 65 -31 l58 0
-6 38 c-6 43 -25 77 -50 90 -29 15 -95 21 -133 12z"/>
<path d="M2920 2040 c-19 -5 -47 -22 -62 -39 l-28 -31 0 -156 c0 -213 18 -244
137 -244 55 0 67 4 95 29 27 24 32 36 36 90 l4 61 -55 0 -56 0 -3 -47 c-3 -40
-6 -48 -23 -48 -18 0 -20 8 -23 73 l-3 72 81 0 80 0 0 80 c0 43 -5 91 -12 105
-21 46 -99 72 -168 55z m68 -138 c3 -50 2 -52 -22 -52 -24 0 -26 3 -26 48 0
53 6 64 30 60 11 -2 16 -18 18 -56z"/>
<path d="M3300 2039 c-13 -5 -28 -15 -32 -22 -5 -8 -8 -6 -8 6 0 14 -9 17 -55
17 l-55 0 0 -235 0 -235 55 0 55 0 2 193 c3 184 4 192 23 192 19 0 20 -8 23
-192 l2 -193 55 0 55 0 0 179 c0 99 3 186 6 195 3 9 15 16 25 16 18 0 19 -10
19 -195 l0 -195 60 0 60 0 0 188 c0 223 -7 258 -57 279 -39 16 -78 11 -105
-14 -16 -15 -20 -15 -35 0 -24 21 -63 28 -93 16z"/>
<path d="M2017 2018 c33 -199 70 -445 66 -450 -2 -5 -17 -8 -34 -8 -27 0 -29
-3 -29 -35 l0 -35 75 0 c59 0 79 4 93 18 13 13 27 71 51 208 19 104 39 219 46
257 l13 67 -53 0 c-62 0 -57 13 -76 -187 -7 -73 -14 -131 -16 -129 -2 2 -33
291 -33 314 0 1 -24 2 -54 2 -50 0 -53 -1 -49 -22z"/>
<path d="M2475 1376 c-59 -26 -72 -101 -26 -147 23 -22 39 -29 69 -29 64 0 72
7 72 56 0 44 0 44 -35 44 -24 0 -35 -5 -35 -15 0 -8 7 -15 15 -15 20 0 19 -29
-1 -37 -24 -9 -63 14 -70 42 -4 16 0 34 11 51 15 23 22 26 61 21 37 -4 44 -2
44 13 0 30 -55 38 -105 16z"/>
<path d="M1420 1290 c0 -83 1 -90 20 -90 17 0 20 7 21 48 l1 47 21 -47 c11
-27 26 -48 32 -48 6 0 21 21 32 48 l21 47 1 -47 c1 -41 4 -48 21 -48 19 0 20
7 20 90 0 84 -1 90 -20 90 -15 0 -27 -15 -45 -55 -13 -30 -27 -55 -30 -55 -3
0 -17 25 -30 55 -18 40 -30 55 -45 55 -19 0 -20 -6 -20 -90z"/>
<path d="M1723 1297 c-18 -45 -33 -86 -33 -90 0 -17 38 -5 43 13 4 16 14 20
45 20 31 0 41 -4 45 -20 3 -12 14 -20 26 -20 21 0 21 0 2 48 -52 131 -53 132
-75 132 -17 0 -27 -15 -53 -83z m77 -14 c0 -7 -12 -13 -26 -13 -21 0 -25 3
-19 18 4 9 10 25 13 36 5 17 6 16 18 -5 7 -13 13 -30 14 -36z"/>
<path d="M1940 1290 c0 -83 2 -90 20 -90 16 0 19 8 22 57 l3 57 38 -57 c24
-38 44 -57 57 -57 18 0 20 7 20 90 0 83 -2 90 -20 90 -16 0 -19 -8 -22 -57
l-3 -58 -35 57 c-26 42 -41 58 -57 58 -22 0 -23 -3 -23 -90z"/>
<path d="M2225 1338 c-59 -148 -57 -138 -36 -138 11 0 23 9 26 20 5 16 15 20
47 20 31 0 41 -4 45 -20 3 -11 14 -20 25 -20 22 0 21 4 -21 108 -35 85 -60 94
-86 30z m53 -35 c10 -31 10 -33 -14 -33 -27 0 -29 6 -14 46 12 31 13 30 28
-13z"/>
<path d="M2660 1290 l0 -90 65 0 c51 0 65 3 65 15 0 11 -12 15 -45 15 -41 0
-45 2 -45 25 0 22 4 25 36 25 45 0 42 24 -4 28 -24 2 -32 8 -32 23 0 16 7 19
45 19 33 0 45 4 45 15 0 12 -14 15 -65 15 l-65 0 0 -90z"/>
<path d="M2860 1290 c0 -83 1 -90 20 -90 17 0 20 7 21 48 l1 47 21 -47 c11
-27 26 -48 32 -48 6 0 21 21 32 48 l21 47 1 -47 c1 -41 4 -48 21 -48 19 0 20
7 20 90 0 84 -1 90 -20 90 -15 0 -27 -15 -45 -55 -13 -30 -27 -55 -30 -55 -3
0 -17 25 -30 55 -18 40 -30 55 -45 55 -19 0 -20 -6 -20 -90z"/>
<path d="M3130 1290 l0 -90 60 0 c47 0 60 3 60 15 0 11 -11 15 -40 15 -36 0
-40 3 -40 25 0 21 5 25 30 25 20 0 30 5 30 15 0 10 -10 15 -30 15 -23 0 -30 4
-30 20 0 17 7 20 40 20 29 0 40 4 40 15 0 12 -13 15 -60 15 l-60 0 0 -90z"/>
<path d="M3320 1290 c0 -83 2 -90 20 -90 16 0 19 8 22 58 l3 57 39 -57 c24
-36 46 -58 57 -58 17 0 19 9 19 90 0 83 -1 90 -20 90 -18 0 -20 -7 -20 -57 l0
-58 -38 57 c-27 42 -43 58 -59 58 -22 0 -23 -3 -23 -90z"/>
<path d="M3550 1365 c0 -9 9 -15 25 -15 24 0 25 -2 25 -75 0 -68 2 -75 20 -75
18 0 20 7 20 75 0 73 1 75 25 75 16 0 25 6 25 15 0 12 -14 15 -70 15 -56 0
-70 -3 -70 -15z"/>
</g>
</svg>
